<mxfile host="app.diagrams.net" modified="2021-11-28T11:59:34.965Z" agent="5.0 (Windows NT 10.0; Win64; x64) AppleWebKit/537.36 (KHTML, like Gecko) Chrome/96.0.4664.45 Safari/537.36" etag="nnZTP0zD0Vhym2L_bIzV" version="15.8.6" type="github">
  <diagram id="vFeFVOrtUzrJVM5EB4tq" name="Page-1">
    <mxGraphModel dx="623" dy="667" grid="1" gridSize="10" guides="1" tooltips="1" connect="1" arrows="1" fold="1" page="1" pageScale="1" pageWidth="827" pageHeight="1169" math="0" shadow="0">
      <root>
        <mxCell id="0" />
        <mxCell id="1" parent="0" />
        <mxCell id="dQFIu4Ob9j-UUY5DLMG5-6" value="" style="rounded=1;whiteSpace=wrap;html=1;" vertex="1" parent="1">
          <mxGeometry x="295" y="120" width="240" height="230" as="geometry" />
        </mxCell>
        <mxCell id="dQFIu4Ob9j-UUY5DLMG5-1" value="&lt;span&gt;Base Image- Linux&amp;nbsp; (Docker Hub)&lt;/span&gt;" style="rounded=0;whiteSpace=wrap;html=1;" vertex="1" parent="1">
          <mxGeometry x="320" y="270" width="200" height="40" as="geometry" />
        </mxCell>
        <mxCell id="dQFIu4Ob9j-UUY5DLMG5-3" value="Anaconda Python enviornment" style="rounded=0;whiteSpace=wrap;html=1;" vertex="1" parent="1">
          <mxGeometry x="320" y="230" width="200" height="40" as="geometry" />
        </mxCell>
        <mxCell id="dQFIu4Ob9j-UUY5DLMG5-4" value="Flask , Flasgger" style="rounded=0;whiteSpace=wrap;html=1;" vertex="1" parent="1">
          <mxGeometry x="320" y="190" width="200" height="40" as="geometry" />
        </mxCell>
        <mxCell id="dQFIu4Ob9j-UUY5DLMG5-5" value="Encapsulate together to Docker Image" style="rounded=0;whiteSpace=wrap;html=1;" vertex="1" parent="1">
          <mxGeometry x="320" y="150" width="200" height="40" as="geometry" />
        </mxCell>
        <mxCell id="dQFIu4Ob9j-UUY5DLMG5-7" value="&lt;font style=&quot;font-size: 15px&quot;&gt;Dockerize&lt;/font&gt;" style="text;html=1;strokeColor=none;fillColor=none;align=center;verticalAlign=middle;whiteSpace=wrap;rounded=0;" vertex="1" parent="1">
          <mxGeometry x="380" y="90" width="70" height="30" as="geometry" />
        </mxCell>
        <mxCell id="dQFIu4Ob9j-UUY5DLMG5-8" value="" style="endArrow=classic;html=1;rounded=0;fontSize=15;exitX=0;exitY=0.5;exitDx=0;exitDy=0;" edge="1" parent="1" source="dQFIu4Ob9j-UUY5DLMG5-1">
          <mxGeometry width="50" height="50" relative="1" as="geometry">
            <mxPoint x="250" y="410" as="sourcePoint" />
            <mxPoint x="270" y="290" as="targetPoint" />
          </mxGeometry>
        </mxCell>
        <mxCell id="dQFIu4Ob9j-UUY5DLMG5-9" value="&lt;b&gt;FROM&lt;/b&gt; LINUX" style="text;html=1;strokeColor=none;fillColor=none;align=center;verticalAlign=middle;whiteSpace=wrap;rounded=0;fontSize=15;" vertex="1" parent="1">
          <mxGeometry x="90" y="275" width="170" height="30" as="geometry" />
        </mxCell>
        <mxCell id="dQFIu4Ob9j-UUY5DLMG5-10" value="&lt;b&gt;COPY&amp;nbsp;&lt;/b&gt;files local to docker image&amp;nbsp;" style="text;html=1;strokeColor=none;fillColor=none;align=center;verticalAlign=middle;whiteSpace=wrap;rounded=0;fontSize=15;" vertex="1" parent="1">
          <mxGeometry x="80" y="235" width="200" height="30" as="geometry" />
        </mxCell>
        <mxCell id="dQFIu4Ob9j-UUY5DLMG5-11" value="" style="endArrow=classic;html=1;rounded=0;fontSize=15;exitX=0;exitY=0.5;exitDx=0;exitDy=0;entryX=1;entryY=0.5;entryDx=0;entryDy=0;" edge="1" parent="1" source="dQFIu4Ob9j-UUY5DLMG5-3">
          <mxGeometry width="50" height="50" relative="1" as="geometry">
            <mxPoint x="330" y="300" as="sourcePoint" />
            <mxPoint x="280" y="250" as="targetPoint" />
          </mxGeometry>
        </mxCell>
        <mxCell id="dQFIu4Ob9j-UUY5DLMG5-12" value="&lt;b&gt;EXPOSE&amp;nbsp;&amp;nbsp;&lt;/b&gt;the Port Number&amp;nbsp;" style="text;html=1;strokeColor=none;fillColor=none;align=center;verticalAlign=middle;whiteSpace=wrap;rounded=0;fontSize=15;" vertex="1" parent="1">
          <mxGeometry x="90" y="195" width="190" height="30" as="geometry" />
        </mxCell>
        <mxCell id="dQFIu4Ob9j-UUY5DLMG5-13" value="&lt;b&gt;FROM&lt;/b&gt; LINUX" style="text;html=1;strokeColor=none;fillColor=none;align=left;verticalAlign=middle;whiteSpace=wrap;rounded=0;fontSize=15;" vertex="1" parent="1">
          <mxGeometry x="80" y="400" width="170" height="30" as="geometry" />
        </mxCell>
        <mxCell id="dQFIu4Ob9j-UUY5DLMG5-14" value="&lt;b&gt;COPY&amp;nbsp;&lt;/b&gt;files from&amp;nbsp; Host system to user root folder&amp;nbsp; docker image&amp;nbsp;" style="text;html=1;strokeColor=none;fillColor=none;align=left;verticalAlign=middle;whiteSpace=wrap;rounded=0;fontSize=15;" vertex="1" parent="1">
          <mxGeometry x="80" y="440" width="440" height="30" as="geometry" />
        </mxCell>
        <mxCell id="dQFIu4Ob9j-UUY5DLMG5-15" value="&lt;b&gt;EXPOSE&amp;nbsp;&amp;nbsp;&lt;/b&gt;the Network Port Number&amp;nbsp;" style="text;html=1;strokeColor=none;fillColor=none;align=left;verticalAlign=middle;whiteSpace=wrap;rounded=0;fontSize=15;" vertex="1" parent="1">
          <mxGeometry x="80" y="480" width="280" height="30" as="geometry" />
        </mxCell>
        <mxCell id="dQFIu4Ob9j-UUY5DLMG5-16" value="&lt;b&gt;WORKDIR&amp;nbsp; &amp;nbsp;&lt;/b&gt;it is location of path&amp;nbsp;" style="text;html=1;strokeColor=none;fillColor=none;align=left;verticalAlign=middle;whiteSpace=wrap;rounded=0;fontSize=15;" vertex="1" parent="1">
          <mxGeometry x="80" y="520" width="320" height="30" as="geometry" />
        </mxCell>
        <mxCell id="dQFIu4Ob9j-UUY5DLMG5-17" value="&lt;b&gt;RUN&amp;nbsp; &amp;nbsp;&lt;/b&gt;pip install -r requirement.txt" style="text;html=1;strokeColor=none;fillColor=none;align=left;verticalAlign=middle;whiteSpace=wrap;rounded=0;fontSize=15;" vertex="1" parent="1">
          <mxGeometry x="80" y="560" width="320" height="30" as="geometry" />
        </mxCell>
        <mxCell id="dQFIu4Ob9j-UUY5DLMG5-18" value="&lt;b&gt;RUN&amp;nbsp; &amp;nbsp;&lt;/b&gt;pip install -r requirement.txt" style="text;html=1;strokeColor=none;fillColor=none;align=left;verticalAlign=middle;whiteSpace=wrap;rounded=0;fontSize=15;" vertex="1" parent="1">
          <mxGeometry x="80" y="600" width="320" height="30" as="geometry" />
        </mxCell>
      </root>
    </mxGraphModel>
  </diagram>
</mxfile>
